<?xml version="1.0" encoding="UTF-8"?>
<svg xmlns="http://www.w3.org/2000/svg" xmlns:xlink="http://www.w3.org/1999/xlink" width="48pt" height="48pt" viewBox="0 0 48 48" version="1.1">
<g id="surface17811951">
<path style=" stroke:none;fill-rule:nonzero;fill:rgb(100%,100%,100%);fill-opacity:1;" d="M 36.601562 33.101562 C 36.601562 35.035156 35.035156 36.601562 33.101562 36.601562 L 14.898438 36.601562 C 12.96875 36.601562 11.398438 35.035156 11.398438 33.101562 L 11.398438 14.898438 C 11.398438 12.964844 12.96875 11.398438 14.898438 11.398438 L 33.101562 11.398438 C 35.035156 11.398438 36.601562 12.964844 36.601562 14.898438 Z M 36.601562 33.101562 "/>
<path style=" stroke:none;fill-rule:nonzero;fill:rgb(100%,100%,100%);fill-opacity:1;" d="M 15.601562 20.5 L 19.101562 20.5 L 19.101562 32.398438 L 15.601562 32.398438 Z M 17.339844 19.101562 L 17.320312 19.101562 C 16.277344 19.101562 15.601562 18.320312 15.601562 17.347656 C 15.601562 16.355469 16.296875 15.601562 17.359375 15.601562 C 18.425781 15.601562 19.082031 16.355469 19.101562 17.347656 C 19.101562 18.320312 18.425781 19.101562 17.339844 19.101562 Z M 32.398438 32.398438 L 28.898438 32.398438 L 28.898438 26.03125 C 28.898438 24.492188 28.042969 23.441406 26.664062 23.441406 C 25.613281 23.441406 25.046875 24.152344 24.769531 24.835938 C 24.667969 25.082031 24.699219 25.757812 24.699219 26.101562 L 24.699219 32.398438 L 21.199219 32.398438 L 21.199219 20.5 L 24.699219 20.5 L 24.699219 22.332031 C 25.203125 21.550781 25.996094 20.5 28.015625 20.5 C 30.519531 20.5 32.398438 22.074219 32.398438 25.59375 Z M 32.398438 32.398438 "/>
</g>
</svg>
